<svg width="250" height="50" viewBox="0 0 727 114" fill="none" xmlns="http://www.w3.org/2000/svg">
<path d="M20.0031 41.5629C24.9561 35.2764 31.6236 32.1331 40.0056 32.1331C48.3876 32.1331 54.3408 35.2287 57.865 41.42C62.9133 35.2287 69.7713 32.1331 78.439 32.1331C93.1075 32.1331 100.442 41.2295 100.442 59.4222V110H78.439V58.4221C78.439 52.2309 75.9149 49.1352 70.8666 49.1352C67.2471 49.1352 64.342 50.5164 62.1513 53.2786V110H40.2914V58.4221C40.2914 52.2309 37.7196 49.1352 32.5761 49.1352C29.1471 49.1352 26.242 50.5164 23.8608 53.2786V110H2.00088V56.279L0.42925 34.9906L17.4314 32.8475L19.4316 41.5629H20.0031ZM145.619 32.1331C155.144 32.1331 162.145 34.7525 166.622 39.9912C170.337 44.2775 172.623 51.4212 173.48 61.4225C173.766 65.423 173.909 70.4236 173.909 76.4244L163.764 77.8531H134.332C134.332 83.4729 135.38 87.7115 137.475 90.569C139.571 93.3312 143.286 94.7124 148.62 94.7124C154.049 94.7124 160.574 93.3312 168.194 90.569L172.623 103.999C163.574 109.143 154.144 111.715 144.333 111.715C122.14 111.715 111.044 98.57 111.044 72.281C111.044 59.8985 113.901 50.1354 119.616 42.9916C125.426 35.7526 134.094 32.1331 145.619 32.1331ZM150.477 52.4214C149.525 50.2306 147.381 49.1352 144.048 49.1352C140.714 49.1352 138.333 50.3735 136.904 52.85C135.475 55.2312 134.666 58.8507 134.475 63.7085H151.906C151.906 58.2792 151.43 54.5169 150.477 52.4214ZM192.356 40.5627C195.499 37.61 198.69 35.4669 201.929 34.1334C205.167 32.7999 209.215 32.1331 214.073 32.1331C219.026 32.1331 223.122 33.1332 226.36 35.1335L226.789 34.7049L224.646 30.8472V2.558L246.506 0.129117V87.4257L248.077 108.714L231.075 110.857L229.075 101.856H228.504C223.17 108.428 216.74 111.715 209.215 111.715C190.927 111.715 181.783 98.9986 181.783 73.5669C181.783 65.8516 182.736 59.1365 184.641 53.4215C186.641 47.7065 189.213 43.4202 192.356 40.5627ZM224.646 51.4212C222.36 49.8972 220.122 49.1352 217.931 49.1352C215.74 49.1352 214.073 49.3734 212.93 49.8496C211.787 50.2306 210.549 51.1355 209.215 52.5642C206.453 55.517 205.072 61.8035 205.072 71.4237C205.072 80.9487 205.882 87.2352 207.501 90.2832C209.12 93.236 211.787 94.7124 215.502 94.7124C219.312 94.7124 222.36 93.2836 224.646 90.4261V51.4212ZM282.403 110H260.543V35.1335L282.403 32.8475V110ZM270.687 28.7041C262.782 28.7041 258.829 24.275 258.829 15.4167C258.829 11.9877 259.876 9.17787 261.972 6.98712C264.067 4.70112 267.496 3.55812 272.259 3.55812C280.069 3.55812 283.975 8.03487 283.975 16.9884C283.975 20.4174 282.927 23.2272 280.831 25.418C278.736 27.6087 275.355 28.7041 270.687 28.7041ZM318.119 110H296.116V2.558L318.119 0.129117V110ZM364.267 110H340.264L318.261 71.138L340.55 32.276L360.695 37.991L339.55 71.4237L364.267 110ZM401.813 32.1331C407.052 32.1331 411.624 32.9427 415.529 34.562C419.434 36.1812 422.482 38.2767 424.673 40.8485C426.959 43.325 428.769 46.4206 430.102 50.1354C432.293 56.2314 433.388 63.7085 433.388 72.5667C433.388 86.1875 429.578 96.5221 421.959 103.571C416.148 109 408.147 111.715 397.955 111.715C392.717 111.715 388.145 110.905 384.239 109.286C380.334 107.666 377.239 105.618 374.953 103.142C372.762 100.57 370.952 97.427 369.523 93.7122C367.333 87.8067 366.237 80.3296 366.237 71.2809C366.237 62.8989 367.904 55.517 371.238 49.1352C377.048 37.8005 387.24 32.1331 401.813 32.1331ZM410.1 72.281C410.1 63.6132 409.433 57.6125 408.1 54.2787C406.766 50.8497 403.909 49.1352 399.527 49.1352C395.241 49.1352 392.479 50.7545 391.24 53.993C390.097 57.2315 389.526 63.137 389.526 71.7095C389.526 80.282 390.193 86.2827 391.526 89.7117C392.86 93.0455 395.717 94.7124 400.099 94.7124C404.48 94.7124 407.242 93.1407 408.385 89.9975C409.528 86.759 410.1 80.8535 410.1 72.281ZM483.869 32.1331C491.013 32.1331 496.537 34.2286 500.443 38.4196C504.348 42.6106 506.301 48.4685 506.301 55.9932V110H484.298V58.4221C484.298 52.2309 481.345 49.1352 475.44 49.1352C472.011 49.1352 469.01 50.5164 466.438 53.2786V110H444.579V55.9932L443.007 34.9906L460.009 32.8475L462.009 41.42H462.724C467.867 35.2287 474.916 32.1331 483.869 32.1331ZM541.497 83.8539C541.497 88.5211 541.783 91.9501 542.354 94.1409C543.021 96.3316 544.593 98.951 547.069 101.999L531.353 113.572C526.781 108.714 523.638 104.475 521.923 100.856C520.304 97.1412 519.494 91.6167 519.494 84.2825V4.55824L541.497 2.12937V83.8539ZM577.641 110H555.781V35.1335L577.641 32.8475V110ZM565.925 28.7041C558.019 28.7041 554.067 24.275 554.067 15.4167C554.067 11.9877 555.114 9.17787 557.21 6.98712C559.305 4.70112 562.734 3.55812 567.497 3.55812C575.307 3.55812 579.213 8.03487 579.213 16.9884C579.213 20.4174 578.165 23.2272 576.069 25.418C573.974 27.6087 570.592 28.7041 565.925 28.7041ZM630.93 32.1331C638.074 32.1331 643.598 34.2286 647.503 38.4196C651.409 42.6106 653.361 48.4685 653.361 55.9932V110H631.359V58.4221C631.359 52.2309 628.406 49.1352 622.5 49.1352C619.071 49.1352 616.071 50.5164 613.499 53.2786V110H591.639V55.9932L590.068 34.9906L607.07 32.8475L609.07 41.42H609.784C614.928 35.2287 621.976 32.1331 630.93 32.1331ZM698.702 32.1331C708.227 32.1331 715.228 34.7525 719.704 39.9912C723.419 44.2775 725.705 51.4212 726.562 61.4225C726.848 65.423 726.991 70.4236 726.991 76.4244L716.847 77.8531H687.415C687.415 83.4729 688.462 87.7115 690.558 90.569C692.653 93.3312 696.368 94.7124 701.702 94.7124C707.131 94.7124 713.656 93.3312 721.276 90.569L725.705 103.999C716.656 109.143 707.227 111.715 697.416 111.715C675.223 111.715 664.126 98.57 664.126 72.281C664.126 59.8985 666.984 50.1354 672.699 42.9916C678.509 35.7526 687.177 32.1331 698.702 32.1331ZM703.56 52.4214C702.607 50.2306 700.464 49.1352 697.13 49.1352C693.796 49.1352 691.415 50.3735 689.986 52.85C688.558 55.2312 687.748 58.8507 687.558 63.7085H704.988C704.988 58.2792 704.512 54.5169 703.56 52.4214Z" fill="#6C63FF"/>
</svg>
